<svg width="190" height="33" viewBox="0 0 190 33" fill="none" xmlns="http://www.w3.org/2000/svg">
<path d="M52.6947 10.4728H56.0064C56.6416 10.4728 57.0771 10.2925 57.313 9.93189C57.5549 9.56516 57.6759 9.01201 57.6759 8.27243C57.6759 6.86662 57.1557 6.16372 56.1153 6.16372H52.6947V10.4728ZM50 17.7616V4.22921H55.7796C57.5096 4.22921 58.686 4.58372 59.3091 5.29273C59.9381 6.00175 60.2527 6.96442 60.2527 8.18075C60.2527 9.39096 60.0773 10.2742 59.7264 10.8304C59.3817 11.3805 58.9008 11.7778 58.2838 12.0223L60.8697 17.7616H58.0751L55.7252 12.4165H52.6947V17.7616H50Z" fill="#FF5722"/>
<path d="M69.1306 18C66.6143 18 64.966 17.3949 64.1857 16.1847C63.7442 15.5001 63.5234 14.5955 63.5234 13.4709V4.22004H66.2181V13.59C66.2181 14.4396 66.457 15.0325 66.9349 15.3687C67.4188 15.6988 68.1537 15.8638 69.1397 15.8638C70.1256 15.8638 70.8333 15.6988 71.2628 15.3687C71.6983 15.0386 71.916 14.4458 71.916 13.59V4.22004H74.6108V13.3608C74.6108 15.1578 74.0845 16.4108 73.032 17.1198C72.1489 17.7066 70.8484 18 69.1306 18Z" fill="#FF5722"/>
<path d="M82.5088 18C81.6801 18 80.803 17.89 79.8776 17.6699C78.9521 17.4499 78.1537 17.1504 77.4823 16.7714L78.4077 14.7819C79.7505 15.5032 81.1387 15.8638 82.5723 15.8638C83.2921 15.8638 83.8002 15.714 84.0966 15.4145C84.393 15.115 84.5412 14.6658 84.5412 14.0668C84.5412 13.9507 84.5291 13.7765 84.5049 13.5442C84.4504 12.9941 83.8456 12.5449 82.6902 12.1965L80.4038 11.518C79.7022 11.3102 79.1396 11.0138 78.7162 10.6287C78.2928 10.2375 78.0055 9.8127 77.8543 9.35429C77.703 8.88976 77.6274 8.34883 77.6274 7.7315C77.6274 6.49072 78.0629 5.55861 78.934 4.93517C79.811 4.31172 80.927 4 82.282 4C84.0724 4 85.5664 4.35145 86.7641 5.05435L86.002 6.97053C84.8345 6.41432 83.6732 6.13621 82.5179 6.13621C81.0662 6.13621 80.3191 6.58546 80.2768 7.48396C80.2768 7.53285 80.2768 7.57869 80.2768 7.62148C80.2768 8.0799 80.3887 8.43746 80.6125 8.69417C80.8423 8.95088 81.3081 9.1862 82.0098 9.40013L84.2871 10.0878C85.2065 10.3689 85.887 10.812 86.3286 11.4172C86.7762 12.0223 87 12.8841 87 14.0026C87 15.115 86.6461 16.0594 85.9384 16.8356C85.2368 17.6119 84.0936 18 82.5088 18Z" fill="#FF5722"/>
<path d="M93.7244 9.67518H96.5406C97.409 9.67518 97.9257 9.44597 98.0908 8.98756C98.1826 8.73084 98.2284 8.34883 98.2284 7.84152C98.2284 7.32809 98.1703 6.95525 98.0542 6.72299C97.9441 6.49072 97.7392 6.32875 97.4396 6.23707C97.1399 6.13927 96.6721 6.09037 96.0361 6.09037H93.7244V9.67518ZM93.7244 15.8546H96.3663C96.9167 15.8546 97.3448 15.8271 97.6505 15.7721C97.9624 15.7171 98.2132 15.601 98.4027 15.4237C98.5984 15.2465 98.7238 15.0203 98.7788 14.7453C98.84 14.4702 98.8706 14.134 98.8706 13.7367C98.8706 13.3333 98.8583 13.0308 98.8339 12.8291C98.7727 12.3157 98.5801 11.9367 98.256 11.6922C97.9318 11.4416 97.3937 11.3163 96.6415 11.3163H93.7244V15.8546ZM91 17.7616V4.22921H96.2104C98.0694 4.22921 99.3415 4.51954 100.026 5.1002C100.381 5.40581 100.632 5.76948 100.779 6.19122C100.931 6.61297 101.008 7.16918 101.008 7.85986C101.008 8.55053 100.886 9.10369 100.641 9.51932C100.396 9.92884 99.9408 10.2192 99.2742 10.3903C100.179 10.5126 100.791 10.8548 101.109 11.4172C101.427 11.9795 101.586 12.7252 101.586 13.6542C101.586 13.7092 101.586 13.7642 101.586 13.8193C101.586 15.1517 101.219 16.1419 100.485 16.7898C99.7512 17.4377 98.5464 17.7616 96.8708 17.7616H91Z" fill="white"/>
<path d="M110.085 18C107.541 18 105.874 17.3949 105.085 16.1847C104.639 15.5001 104.416 14.5955 104.416 13.4709V4.22004H107.14V13.59C107.14 14.4396 107.382 15.0325 107.865 15.3687C108.354 15.6988 109.097 15.8638 110.094 15.8638C111.091 15.8638 111.806 15.6988 112.24 15.3687C112.681 15.0386 112.901 14.4458 112.901 13.59V4.22004H115.625V13.3608C115.625 15.1578 115.093 16.4108 114.029 17.1198C113.136 17.7066 111.821 18 110.085 18Z" fill="white"/>
<path d="M123.61 18C122.772 18 121.886 17.89 120.95 17.6699C120.014 17.4499 119.207 17.1504 118.528 16.7714L119.464 14.7819C120.822 15.5032 122.225 15.8638 123.674 15.8638C124.402 15.8638 124.916 15.714 125.216 15.4145C125.515 15.115 125.665 14.6658 125.665 14.0668C125.665 13.9507 125.653 13.7765 125.628 13.5442C125.573 12.9941 124.962 12.5449 123.794 12.1965L121.482 11.518C120.773 11.3102 120.204 11.0138 119.776 10.6287C119.348 10.2375 119.057 9.8127 118.904 9.35429C118.751 8.88976 118.675 8.34883 118.675 7.7315C118.675 6.49072 119.115 5.55861 119.996 4.93517C120.883 4.31172 122.011 4 123.381 4C125.191 4 126.702 4.35145 127.912 5.05435L127.142 6.97053C125.962 6.41432 124.787 6.13621 123.619 6.13621C122.152 6.13621 121.396 6.58546 121.354 7.48396C121.354 7.53285 121.354 7.57869 121.354 7.62148C121.354 8.0799 121.467 8.43746 121.693 8.69417C121.925 8.95088 122.396 9.1862 123.106 9.40013L125.408 10.0878C126.338 10.3689 127.026 10.812 127.472 11.4172C127.925 12.0223 128.151 12.8841 128.151 14.0026C128.151 15.115 127.793 16.0594 127.078 16.8356C126.368 17.6119 125.212 18 123.61 18Z" fill="white"/>
<path d="M130.825 17.7616V15.7263H133.292V6.2554H130.825V4.22921H138.457V6.2554H136.008V15.7263H138.457V17.7616H130.825Z" fill="white"/>
<path d="M141.837 17.7616V4.22921H143.883L150.918 13.5075V4.22921H153.34V17.7616H151.294L144.286 8.62999V17.7616H141.837Z" fill="white"/>
<path d="M157.014 17.7616V4.22921H165.884V6.28291H159.729V9.87688H165.187V11.8389H159.729V15.7079H165.985V17.7616H157.014Z" fill="white"/>
<path d="M173.511 18C172.674 18 171.787 17.89 170.851 17.6699C169.916 17.4499 169.108 17.1504 168.429 16.7714L169.365 14.7819C170.723 15.5032 172.126 15.8638 173.576 15.8638C174.303 15.8638 174.817 15.714 175.117 15.4145C175.416 15.115 175.566 14.6658 175.566 14.0668C175.566 13.9507 175.554 13.7765 175.53 13.5442C175.474 12.9941 174.863 12.5449 173.695 12.1965L171.383 11.518C170.674 11.3102 170.105 11.0138 169.677 10.6287C169.249 10.2375 168.958 9.8127 168.806 9.35429C168.653 8.88976 168.576 8.34883 168.576 7.7315C168.576 6.49072 169.017 5.55861 169.897 4.93517C170.784 4.31172 171.912 4 173.282 4C175.092 4 176.603 4.35145 177.814 5.05435L177.043 6.97053C175.863 6.41432 174.689 6.13621 173.521 6.13621C172.053 6.13621 171.298 6.58546 171.255 7.48396C171.255 7.53285 171.255 7.57869 171.255 7.62148C171.255 8.0799 171.368 8.43746 171.594 8.69417C171.827 8.95088 172.298 9.1862 173.007 9.40013L175.309 10.0878C176.239 10.3689 176.927 10.812 177.373 11.4172C177.826 12.0223 178.052 12.8841 178.052 14.0026C178.052 15.115 177.694 16.0594 176.979 16.8356C176.269 17.6119 175.114 18 173.511 18Z" fill="white"/>
<path d="M185.459 18C184.621 18 183.735 17.89 182.799 17.6699C181.863 17.4499 181.056 17.1504 180.377 16.7714L181.313 14.7819C182.671 15.5032 184.074 15.8638 185.523 15.8638C186.251 15.8638 186.765 15.714 187.065 15.4145C187.364 15.115 187.514 14.6658 187.514 14.0668C187.514 13.9507 187.502 13.7765 187.477 13.5442C187.422 12.9941 186.811 12.5449 185.643 12.1965L183.331 11.518C182.622 11.3102 182.053 11.0138 181.625 10.6287C181.197 10.2375 180.906 9.8127 180.753 9.35429C180.601 8.88976 180.524 8.34883 180.524 7.7315C180.524 6.49072 180.964 5.55861 181.845 4.93517C182.732 4.31172 183.86 4 185.23 4C187.04 4 188.551 4.35145 189.761 5.05435L188.991 6.97053C187.811 6.41432 186.637 6.13621 185.468 6.13621C184.001 6.13621 183.245 6.58546 183.203 7.48396C183.203 7.53285 183.203 7.57869 183.203 7.62148C183.203 8.0799 183.316 8.43746 183.542 8.69417C183.774 8.95088 184.245 9.1862 184.955 9.40013L187.257 10.0878C188.187 10.3689 188.875 10.812 189.321 11.4172C189.774 12.0223 190 12.8841 190 14.0026C190 15.115 189.642 16.0594 188.927 16.8356C188.217 17.6119 187.062 18 185.459 18Z" fill="white"/>
<path d="M53.5599 27.2418C53.5599 27.5045 53.472 27.7284 53.2961 27.9134C53.1265 28.0985 52.8722 28.2179 52.533 28.2716V28.3075C52.891 28.3493 53.1768 28.4657 53.3903 28.6567C53.6102 28.8478 53.7201 29.0925 53.7201 29.391C53.7201 29.6716 53.6416 29.9224 53.4845 30.1433C53.3338 30.3642 53.092 30.5373 52.7591 30.6627C52.4262 30.7881 51.9897 30.8507 51.4495 30.8507H49V25.9612H51.4495C51.8515 25.9612 52.2095 26.003 52.5236 26.0866C52.8439 26.1642 53.0951 26.2955 53.2773 26.4806C53.4657 26.6657 53.5599 26.9194 53.5599 27.2418ZM52.1373 27.3493C52.1373 27.0507 51.8892 26.9015 51.393 26.9015H50.4038V27.8687H51.2328C51.528 27.8687 51.751 27.8299 51.9018 27.7522C52.0588 27.6687 52.1373 27.5343 52.1373 27.3493ZM52.2692 29.3194C52.2692 29.1284 52.1907 28.991 52.0337 28.9075C51.8766 28.8179 51.6411 28.7731 51.3271 28.7731H50.4038V29.9284H51.3553C51.6191 29.9284 51.8358 29.8836 52.0054 29.794C52.1813 29.6985 52.2692 29.5403 52.2692 29.3194Z" fill="#808080"/>
<path d="M57.0166 30.9403C56.2504 30.9403 55.6568 30.7403 55.236 30.3403C54.8215 29.9343 54.6142 29.2985 54.6142 28.4328C54.6142 27.8358 54.721 27.3493 54.9345 26.9731C55.1481 26.597 55.4433 26.3194 55.8201 26.1403C56.2033 25.9612 56.6429 25.8716 57.1391 25.8716C57.4908 25.8716 57.7955 25.9045 58.053 25.9701C58.3168 26.0358 58.546 26.1134 58.7407 26.203L58.3262 27.2328C58.1064 27.1493 57.8991 27.0806 57.7044 27.0269C57.516 26.9731 57.3275 26.9463 57.1391 26.9463C56.4105 26.9463 56.0462 27.4388 56.0462 28.4239C56.0462 28.9134 56.1405 29.2746 56.3289 29.5075C56.5236 29.7403 56.7937 29.8567 57.1391 29.8567C57.4343 29.8567 57.695 29.8209 57.9211 29.7493C58.1472 29.6716 58.367 29.5672 58.5806 29.4358V30.5731C58.367 30.7045 58.1409 30.797 57.9022 30.8507C57.6698 30.9104 57.3746 30.9403 57.0166 30.9403Z" fill="#808080"/>
<path d="M61.8844 25.8716C62.5941 25.8716 63.1562 26.0657 63.5708 26.4537C63.9853 26.8358 64.1926 27.3821 64.1926 28.0925V28.7373H60.8763C60.8888 29.1134 61.005 29.409 61.2249 29.6239C61.451 29.8388 61.7619 29.9463 62.1576 29.9463C62.4905 29.9463 62.7919 29.9164 63.062 29.8567C63.3321 29.791 63.6116 29.6925 63.9005 29.5612V30.591C63.6493 30.7104 63.3823 30.797 63.0997 30.8507C62.8233 30.9104 62.4873 30.9403 62.0916 30.9403C61.5766 30.9403 61.1212 30.8507 60.7255 30.6716C60.3298 30.4866 60.0189 30.209 59.7928 29.8388C59.5667 29.4687 59.4537 29.003 59.4537 28.4418C59.4537 27.8687 59.5542 27.394 59.7551 27.0179C59.9624 26.6358 60.2482 26.3493 60.6125 26.1582C60.9768 25.9672 61.4007 25.8716 61.8844 25.8716ZM61.8938 26.8209C61.6237 26.8209 61.3976 26.9045 61.2154 27.0716C61.0396 27.2388 60.9359 27.4985 60.9045 27.8507H62.8736C62.8673 27.5522 62.7857 27.3075 62.6286 27.1164C62.4716 26.9194 62.2267 26.8209 61.8938 26.8209Z" fill="#808080"/>
<path d="M72.8468 28.397C72.8468 29.209 72.6206 29.8358 72.1684 30.2776C71.7225 30.7194 71.1132 30.9403 70.3407 30.9403C69.8634 30.9403 69.4363 30.8418 69.0594 30.6448C68.6888 30.4478 68.3968 30.1612 68.1832 29.7851C67.9697 29.403 67.8629 28.9403 67.8629 28.397C67.8629 27.5851 68.0859 26.9612 68.5318 26.5254C68.9777 26.0896 69.5901 25.8716 70.369 25.8716C70.8526 25.8716 71.2797 25.9701 71.6503 26.1672C72.0208 26.3642 72.3129 26.6507 72.5264 27.0269C72.74 27.397 72.8468 27.8537 72.8468 28.397ZM69.2949 28.397C69.2949 28.8806 69.3766 29.2478 69.5399 29.4985C69.7095 29.7433 69.9827 29.8657 70.3595 29.8657C70.7301 29.8657 70.997 29.7433 71.1603 29.4985C71.3299 29.2478 71.4147 28.8806 71.4147 28.397C71.4147 27.9134 71.3299 27.5522 71.1603 27.3134C70.997 27.0687 70.727 26.9463 70.3501 26.9463C69.9795 26.9463 69.7095 27.0687 69.5399 27.3134C69.3766 27.5522 69.2949 27.9134 69.2949 28.397Z" fill="#808080"/>
<path d="M76.5389 27.9224C76.5389 26.8418 76.7525 26.003 77.1796 25.406C77.613 24.809 78.3259 24.4269 79.3182 24.2597C79.6511 24.206 79.9871 24.1612 80.3263 24.1254C80.6718 24.0836 81.0266 24.0418 81.3909 24L81.5511 25.1642C81.3375 25.1881 81.102 25.2149 80.8445 25.2448C80.5932 25.2746 80.342 25.3045 80.0908 25.3343C79.8458 25.3582 79.626 25.3851 79.4313 25.4149C79.1172 25.4627 78.8566 25.5373 78.6493 25.6388C78.4421 25.7343 78.2819 25.8896 78.1688 26.1045C78.0621 26.3194 77.9961 26.6299 77.971 27.0358H78.0369C78.1123 26.9224 78.2159 26.809 78.3478 26.6955C78.486 26.5821 78.6556 26.4866 78.8566 26.409C79.0576 26.3313 79.2868 26.2925 79.5443 26.2925C80.1599 26.2925 80.6466 26.4716 81.0046 26.8299C81.3689 27.1881 81.5511 27.7224 81.5511 28.4328C81.5511 28.9881 81.4443 29.4507 81.2308 29.8209C81.0172 30.191 80.722 30.4716 80.3452 30.6627C79.9683 30.8478 79.5318 30.9403 79.0356 30.9403C78.2756 30.9403 77.6695 30.6806 77.2173 30.1612C76.7651 29.6418 76.5389 28.8955 76.5389 27.9224ZM79.1204 29.8567C79.4156 29.8567 79.6543 29.7612 79.8364 29.5701C80.0248 29.3791 80.119 29.0388 80.119 28.5493C80.119 28.1612 80.05 27.8537 79.9118 27.6269C79.7799 27.394 79.5475 27.2776 79.2146 27.2776C79.0136 27.2776 78.8252 27.3254 78.6493 27.4209C78.4797 27.5104 78.3353 27.6149 78.2159 27.7343C78.0966 27.8478 78.015 27.9463 77.971 28.0299C77.971 28.3343 78.0055 28.6269 78.0746 28.9075C78.1437 29.1881 78.2599 29.4179 78.4232 29.597C78.5928 29.7701 78.8252 29.8567 79.1204 29.8567Z" fill="#808080"/>
<path d="M84.0672 25.9612V27.8955C84.0672 27.997 84.0609 28.1224 84.0484 28.2716C84.0421 28.4209 84.0327 28.5731 84.0201 28.7284C84.0138 28.8836 84.0044 29.0209 83.9919 29.1403C83.9793 29.2597 83.9699 29.3433 83.9636 29.391L86.3378 25.9612H88.0242V30.8507H86.6675V28.8985C86.6675 28.7373 86.6738 28.5612 86.6863 28.3701C86.6989 28.1731 86.7115 27.991 86.724 27.8239C86.7429 27.6507 86.7554 27.5194 86.7617 27.4299L84.397 30.8507H82.7106V25.9612H84.0672Z" fill="#808080"/>
<path d="M91.3661 25.8716C91.7367 25.8716 92.0822 25.9194 92.4025 26.0149C92.7291 26.1045 92.9898 26.2448 93.1845 26.4358C93.3854 26.6269 93.4859 26.8716 93.4859 27.1701C93.4859 27.4627 93.3917 27.6955 93.2033 27.8687C93.0212 28.0418 92.7731 28.1672 92.459 28.2448V28.2896C92.6788 28.3373 92.8767 28.406 93.0526 28.4955C93.2284 28.5791 93.3666 28.6955 93.4671 28.8448C93.5739 28.9881 93.6273 29.1821 93.6273 29.4269C93.6273 29.6955 93.5362 29.9463 93.354 30.1791C93.1782 30.406 92.9018 30.591 92.525 30.7343C92.1544 30.8716 91.677 30.9403 91.0929 30.9403C90.2387 30.9403 89.5792 30.8388 89.1145 30.6358V29.5343C89.328 29.6299 89.5887 29.7164 89.8964 29.794C90.2105 29.8716 90.5434 29.9104 90.8951 29.9104C91.2782 29.9104 91.6017 29.8687 91.8655 29.7851C92.1293 29.7015 92.2612 29.5552 92.2612 29.3463C92.2612 28.9582 91.7744 28.7642 90.8009 28.7642H90.2544V27.8418H90.7726C91.2374 27.8418 91.5954 27.806 91.8466 27.7343C92.1041 27.6627 92.2329 27.5284 92.2329 27.3313C92.2329 27.1761 92.1513 27.0597 91.988 26.9821C91.8246 26.8985 91.5577 26.8567 91.1871 26.8567C90.9422 26.8567 90.6753 26.8836 90.3863 26.9373C90.0974 26.991 89.8242 27.0687 89.5667 27.1701L89.1521 26.2388C89.4473 26.1313 89.7708 26.0448 90.1225 25.9791C90.4743 25.9075 90.8888 25.8716 91.3661 25.8716Z" fill="#808080"/>
<path d="M96.121 25.9612V27.8418H98.0806V25.9612H99.4844V30.8507H98.0806V28.8358H96.121V30.8507H94.7172V25.9612H96.121Z" fill="#808080"/>
<path d="M103.075 25.8716C103.785 25.8716 104.347 26.0657 104.761 26.4537C105.176 26.8358 105.383 27.3821 105.383 28.0925V28.7373H102.067C102.079 29.1134 102.196 29.409 102.415 29.6239C102.642 29.8388 102.952 29.9463 103.348 29.9463C103.681 29.9463 103.982 29.9164 104.253 29.8567C104.523 29.791 104.802 29.6925 105.091 29.5612V30.591C104.84 30.7104 104.573 30.797 104.29 30.8507C104.014 30.9104 103.678 30.9403 103.282 30.9403C102.767 30.9403 102.312 30.8507 101.916 30.6716C101.52 30.4866 101.209 30.209 100.983 29.8388C100.757 29.4687 100.644 29.003 100.644 28.4418C100.644 27.8687 100.745 27.394 100.946 27.0179C101.153 26.6358 101.439 26.3493 101.803 26.1582C102.167 25.9672 102.591 25.8716 103.075 25.8716ZM103.084 26.8209C102.814 26.8209 102.588 26.9045 102.406 27.0716C102.23 27.2388 102.126 27.4985 102.095 27.8507H104.064C104.058 27.5522 103.976 27.3075 103.819 27.1164C103.662 26.9194 103.417 26.8209 103.084 26.8209Z" fill="#808080"/>
<path d="M108.613 30.9403C107.847 30.9403 107.253 30.7403 106.832 30.3403C106.418 29.9343 106.21 29.2985 106.21 28.4328C106.21 27.8358 106.317 27.3493 106.531 26.9731C106.744 26.597 107.04 26.3194 107.416 26.1403C107.8 25.9612 108.239 25.8716 108.735 25.8716C109.087 25.8716 109.392 25.9045 109.649 25.9701C109.913 26.0358 110.142 26.1134 110.337 26.203L109.922 27.2328C109.703 27.1493 109.495 27.0806 109.301 27.0269C109.112 26.9731 108.924 26.9463 108.735 26.9463C108.007 26.9463 107.643 27.4388 107.643 28.4239C107.643 28.9134 107.737 29.2746 107.925 29.5075C108.12 29.7403 108.39 29.8567 108.735 29.8567C109.031 29.8567 109.291 29.8209 109.517 29.7493C109.743 29.6716 109.963 29.5672 110.177 29.4358V30.5731C109.963 30.7045 109.737 30.797 109.499 30.8507C109.266 30.9104 108.971 30.9403 108.613 30.9403Z" fill="#808080"/>
<path d="M113.481 25.8716C114.19 25.8716 114.753 26.0657 115.167 26.4537C115.582 26.8358 115.789 27.3821 115.789 28.0925V28.7373H112.473C112.485 29.1134 112.601 29.409 112.821 29.6239C113.047 29.8388 113.358 29.9463 113.754 29.9463C114.087 29.9463 114.388 29.9164 114.658 29.8567C114.928 29.791 115.208 29.6925 115.497 29.5612V30.591C115.246 30.7104 114.979 30.797 114.696 30.8507C114.42 30.9104 114.084 30.9403 113.688 30.9403C113.173 30.9403 112.718 30.8507 112.322 30.6716C111.926 30.4866 111.615 30.209 111.389 29.8388C111.163 29.4687 111.05 29.003 111.05 28.4418C111.05 27.8687 111.15 27.394 111.351 27.0179C111.559 26.6358 111.844 26.3493 112.209 26.1582C112.573 25.9672 112.997 25.8716 113.481 25.8716ZM113.49 26.8209C113.22 26.8209 112.994 26.9045 112.812 27.0716C112.636 27.2388 112.532 27.4985 112.501 27.8507H114.47C114.464 27.5522 114.382 27.3075 114.225 27.1164C114.068 26.9194 113.823 26.8209 113.49 26.8209Z" fill="#808080"/>
<path d="M121.127 25.9612V27.8955C121.127 27.997 121.12 28.1224 121.108 28.2716C121.102 28.4209 121.092 28.5731 121.08 28.7284C121.073 28.8836 121.064 29.0209 121.051 29.1403C121.039 29.2597 121.029 29.3433 121.023 29.391L123.397 25.9612H125.084V30.8507H123.727V28.8985C123.727 28.7373 123.733 28.5612 123.746 28.3701C123.758 28.1731 123.771 27.991 123.784 27.8239C123.802 27.6507 123.815 27.5194 123.821 27.4299L121.457 30.8507H119.77V25.9612H121.127Z" fill="#808080"/>
<path d="M128.659 25.9612H130.195L131.165 28.7104C131.215 28.8418 131.253 28.9791 131.278 29.1224C131.303 29.2597 131.322 29.406 131.335 29.5612H131.363C131.382 29.406 131.407 29.2597 131.438 29.1224C131.476 28.9791 131.517 28.8418 131.561 28.7104L132.512 25.9612H134.02L131.843 31.4776C131.649 31.9851 131.363 32.3642 130.986 32.6149C130.615 32.8716 130.185 33 129.695 33C129.538 33 129.4 32.991 129.281 32.9731C129.168 32.9612 129.067 32.9463 128.979 32.9284V31.8716C129.048 31.8836 129.13 31.8955 129.224 31.9075C129.325 31.9194 129.428 31.9254 129.535 31.9254C129.83 31.9254 130.063 31.8388 130.232 31.6657C130.408 31.4985 130.537 31.2955 130.619 31.0567L130.703 30.8149L128.659 25.9612Z" fill="#808080"/>
<path d="M136.849 30.9403C136.083 30.9403 135.489 30.7403 135.069 30.3403C134.654 29.9343 134.447 29.2985 134.447 28.4328C134.447 27.8358 134.554 27.3493 134.767 26.9731C134.981 26.597 135.276 26.3194 135.653 26.1403C136.036 25.9612 136.475 25.8716 136.972 25.8716C137.323 25.8716 137.628 25.9045 137.886 25.9701C138.149 26.0358 138.379 26.1134 138.573 26.203L138.159 27.2328C137.939 27.1493 137.732 27.0806 137.537 27.0269C137.349 26.9731 137.16 26.9463 136.972 26.9463C136.243 26.9463 135.879 27.4388 135.879 28.4239C135.879 28.9134 135.973 29.2746 136.161 29.5075C136.356 29.7403 136.626 29.8567 136.972 29.8567C137.267 29.8567 137.528 29.8209 137.754 29.7493C137.98 29.6716 138.2 29.5672 138.413 29.4358V30.5731C138.2 30.7045 137.973 30.797 137.735 30.8507C137.502 30.9104 137.207 30.9403 136.849 30.9403Z" fill="#808080"/>
<path d="M144.27 25.9612V30.8507H142.866V26.9642H141.001V30.8507H139.597V25.9612H144.27Z" fill="#808080"/>
<path d="M147.863 25.8716C148.573 25.8716 149.135 26.0657 149.549 26.4537C149.964 26.8358 150.171 27.3821 150.171 28.0925V28.7373H146.855C146.867 29.1134 146.984 29.409 147.203 29.6239C147.429 29.8388 147.74 29.9463 148.136 29.9463C148.469 29.9463 148.77 29.9164 149.04 29.8567C149.311 29.791 149.59 29.6925 149.879 29.5612V30.591C149.628 30.7104 149.361 30.797 149.078 30.8507C148.802 30.9104 148.466 30.9403 148.07 30.9403C147.555 30.9403 147.1 30.8507 146.704 30.6716C146.308 30.4866 145.997 30.209 145.771 29.8388C145.545 29.4687 145.432 29.003 145.432 28.4418C145.432 27.8687 145.533 27.394 145.734 27.0179C145.941 26.6358 146.227 26.3493 146.591 26.1582C146.955 25.9672 147.379 25.8716 147.863 25.8716ZM147.872 26.8209C147.602 26.8209 147.376 26.9045 147.194 27.0716C147.018 27.2388 146.914 27.4985 146.883 27.8507H148.852C148.846 27.5522 148.764 27.3075 148.607 27.1164C148.45 26.9194 148.205 26.8209 147.872 26.8209Z" fill="#808080"/>
<path d="M152.365 28.3522L150.706 25.9612H152.299L153.297 27.5194L154.305 25.9612H155.897L154.221 28.3522L155.973 30.8507H154.381L153.297 29.1761L152.214 30.8507H150.622L152.365 28.3522Z" fill="#808080"/>
<path d="M158.692 25.8716C159.402 25.8716 159.964 26.0657 160.378 26.4537C160.793 26.8358 161 27.3821 161 28.0925V28.7373H157.684C157.696 29.1134 157.812 29.409 158.032 29.6239C158.258 29.8388 158.569 29.9463 158.965 29.9463C159.298 29.9463 159.599 29.9164 159.869 29.8567C160.14 29.791 160.419 29.6925 160.708 29.5612V30.591C160.457 30.7104 160.19 30.797 159.907 30.8507C159.631 30.9104 159.295 30.9403 158.899 30.9403C158.384 30.9403 157.929 30.8507 157.533 30.6716C157.137 30.4866 156.826 30.209 156.6 29.8388C156.374 29.4687 156.261 29.003 156.261 28.4418C156.261 27.8687 156.362 27.394 156.563 27.0179C156.77 26.6358 157.056 26.3493 157.42 26.1582C157.784 25.9672 158.208 25.8716 158.692 25.8716ZM158.701 26.8209C158.431 26.8209 158.205 26.9045 158.023 27.0716C157.847 27.2388 157.743 27.4985 157.712 27.8507H159.681C159.675 27.5522 159.593 27.3075 159.436 27.1164C159.279 26.9194 159.034 26.8209 158.701 26.8209Z" fill="#808080"/>
<path d="M5 9.84615H30V7.38462H5V9.84615ZM18.75 24.6154H27.5V22.1538H18.75V24.6154ZM18.75 19.6923H30V17.2308H18.75V19.6923ZM18.75 14.7692H30V12.3077H18.75V14.7692ZM5 24.6154H16.25V12.3077H5V24.6154ZM35 4.92308V0H0V27.0769C0 27.0769 0 32 5 32H36.25C36.25 32 40 31.9237 40 27.0769V4.92308H35ZM5 29.5385C2.5 29.5385 2.5 27.0769 2.5 27.0769V2.46154H32.5V27.0769C32.5 28.2105 32.855 28.9945 33.345 29.5385H5Z" fill="white"/>
</svg>
