<svg width="190" height="33" viewBox="0 0 190 33" fill="none" xmlns="http://www.w3.org/2000/svg">
<path d="M52.6947 10.4728H56.0064C56.6416 10.4728 57.0771 10.2925 57.313 9.93189C57.5549 9.56516 57.6759 9.01201 57.6759 8.27243C57.6759 6.86662 57.1557 6.16372 56.1153 6.16372H52.6947V10.4728ZM50 17.7616V4.22921H55.7796C57.5096 4.22921 58.686 4.58372 59.3091 5.29273C59.9381 6.00175 60.2527 6.96442 60.2527 8.18075C60.2527 9.39096 60.0773 10.2742 59.7264 10.8304C59.3817 11.3805 58.9008 11.7778 58.2838 12.0223L60.8697 17.7616H58.0751L55.7252 12.4165H52.6947V17.7616H50Z" fill="#FF5722"/>
<path d="M69.1306 18C66.6143 18 64.966 17.3949 64.1857 16.1847C63.7442 15.5001 63.5234 14.5955 63.5234 13.4709V4.22004H66.2181V13.59C66.2181 14.4396 66.457 15.0325 66.9349 15.3687C67.4188 15.6988 68.1537 15.8638 69.1397 15.8638C70.1256 15.8638 70.8333 15.6988 71.2628 15.3687C71.6983 15.0386 71.916 14.4458 71.916 13.59V4.22004H74.6108V13.3608C74.6108 15.1578 74.0845 16.4108 73.032 17.1198C72.1489 17.7066 70.8484 18 69.1306 18Z" fill="#FF5722"/>
<path d="M82.5088 18C81.6801 18 80.803 17.89 79.8776 17.6699C78.9521 17.4499 78.1537 17.1504 77.4823 16.7714L78.4077 14.7819C79.7505 15.5032 81.1387 15.8638 82.5723 15.8638C83.2921 15.8638 83.8002 15.714 84.0966 15.4145C84.393 15.115 84.5412 14.6658 84.5412 14.0668C84.5412 13.9507 84.5291 13.7765 84.5049 13.5442C84.4504 12.9941 83.8456 12.5449 82.6902 12.1965L80.4038 11.518C79.7022 11.3102 79.1396 11.0138 78.7162 10.6287C78.2928 10.2375 78.0055 9.8127 77.8543 9.35429C77.703 8.88976 77.6274 8.34883 77.6274 7.7315C77.6274 6.49072 78.0629 5.55861 78.934 4.93517C79.811 4.31172 80.927 4 82.282 4C84.0724 4 85.5664 4.35145 86.7641 5.05435L86.002 6.97053C84.8345 6.41432 83.6732 6.13621 82.5179 6.13621C81.0662 6.13621 80.3191 6.58546 80.2768 7.48396C80.2768 7.53285 80.2768 7.57869 80.2768 7.62148C80.2768 8.0799 80.3887 8.43746 80.6125 8.69417C80.8423 8.95088 81.3081 9.1862 82.0098 9.40013L84.2871 10.0878C85.2065 10.3689 85.887 10.812 86.3286 11.4172C86.7762 12.0223 87 12.8841 87 14.0026C87 15.115 86.6461 16.0594 85.9384 16.8356C85.2368 17.6119 84.0936 18 82.5088 18Z" fill="#FF5722"/>
<path d="M93.7244 9.67518H96.5406C97.409 9.67518 97.9257 9.44597 98.0908 8.98756C98.1826 8.73084 98.2284 8.34883 98.2284 7.84152C98.2284 7.32809 98.1703 6.95525 98.0542 6.72299C97.9441 6.49072 97.7392 6.32875 97.4396 6.23707C97.1399 6.13927 96.6721 6.09037 96.0361 6.09037H93.7244V9.67518ZM93.7244 15.8546H96.3663C96.9167 15.8546 97.3448 15.8271 97.6505 15.7721C97.9624 15.7171 98.2132 15.601 98.4027 15.4237C98.5984 15.2465 98.7238 15.0203 98.7788 14.7453C98.84 14.4702 98.8706 14.134 98.8706 13.7367C98.8706 13.3333 98.8583 13.0308 98.8339 12.8291C98.7727 12.3157 98.5801 11.9367 98.256 11.6922C97.9318 11.4416 97.3937 11.3163 96.6415 11.3163H93.7244V15.8546ZM91 17.7616V4.22921H96.2104C98.0694 4.22921 99.3415 4.51954 100.026 5.1002C100.381 5.40581 100.632 5.76948 100.779 6.19122C100.931 6.61297 101.008 7.16918 101.008 7.85986C101.008 8.55053 100.886 9.10369 100.641 9.51932C100.396 9.92884 99.9408 10.2192 99.2742 10.3903C100.179 10.5126 100.791 10.8548 101.109 11.4172C101.427 11.9795 101.586 12.7252 101.586 13.6542C101.586 13.7092 101.586 13.7642 101.586 13.8193C101.586 15.1517 101.219 16.1419 100.485 16.7898C99.7512 17.4377 98.5464 17.7616 96.8708 17.7616H91Z" fill="white"/>
<path d="M110.085 18C107.541 18 105.874 17.3949 105.085 16.1847C104.639 15.5001 104.416 14.5955 104.416 13.4709V4.22004H107.14V13.59C107.14 14.4396 107.382 15.0325 107.865 15.3687C108.354 15.6988 109.097 15.8638 110.094 15.8638C111.091 15.8638 111.806 15.6988 112.24 15.3687C112.681 15.0386 112.901 14.4458 112.901 13.59V4.22004H115.625V13.3608C115.625 15.1578 115.093 16.4108 114.029 17.1198C113.136 17.7066 111.821 18 110.085 18Z" fill="white"/>
<path d="M123.61 18C122.772 18 121.886 17.89 120.95 17.6699C120.014 17.4499 119.207 17.1504 118.528 16.7714L119.464 14.7819C120.822 15.5032 122.225 15.8638 123.674 15.8638C124.402 15.8638 124.916 15.714 125.216 15.4145C125.515 15.115 125.665 14.6658 125.665 14.0668C125.665 13.9507 125.653 13.7765 125.628 13.5442C125.573 12.9941 124.962 12.5449 123.794 12.1965L121.482 11.518C120.773 11.3102 120.204 11.0138 119.776 10.6287C119.348 10.2375 119.057 9.8127 118.904 9.35429C118.751 8.88976 118.675 8.34883 118.675 7.7315C118.675 6.49072 119.115 5.55861 119.996 4.93517C120.883 4.31172 122.011 4 123.381 4C125.191 4 126.702 4.35145 127.912 5.05435L127.142 6.97053C125.962 6.41432 124.787 6.13621 123.619 6.13621C122.152 6.13621 121.396 6.58546 121.354 7.48396C121.354 7.53285 121.354 7.57869 121.354 7.62148C121.354 8.0799 121.467 8.43746 121.693 8.69417C121.925 8.95088 122.396 9.1862 123.106 9.40013L125.408 10.0878C126.338 10.3689 127.026 10.812 127.472 11.4172C127.925 12.0223 128.151 12.8841 128.151 14.0026C128.151 15.115 127.793 16.0594 127.078 16.8356C126.368 17.6119 125.212 18 123.61 18Z" fill="white"/>
<path d="M130.825 17.7616V15.7263H133.292V6.2554H130.825V4.22921H138.457V6.2554H136.008V15.7263H138.457V17.7616H130.825Z" fill="white"/>
<path d="M141.837 17.7616V4.22921H143.883L150.918 13.5075V4.22921H153.34V17.7616H151.294L144.286 8.62999V17.7616H141.837Z" fill="white"/>
<path d="M157.014 17.7616V4.22921H165.884V6.28291H159.729V9.87688H165.187V11.8389H159.729V15.7079H165.985V17.7616H157.014Z" fill="white"/>
<path d="M173.511 18C172.674 18 171.787 17.89 170.851 17.6699C169.916 17.4499 169.108 17.1504 168.429 16.7714L169.365 14.7819C170.723 15.5032 172.126 15.8638 173.576 15.8638C174.303 15.8638 174.817 15.714 175.117 15.4145C175.416 15.115 175.566 14.6658 175.566 14.0668C175.566 13.9507 175.554 13.7765 175.53 13.5442C175.474 12.9941 174.863 12.5449 173.695 12.1965L171.383 11.518C170.674 11.3102 170.105 11.0138 169.677 10.6287C169.249 10.2375 168.958 9.8127 168.806 9.35429C168.653 8.88976 168.576 8.34883 168.576 7.7315C168.576 6.49072 169.017 5.55861 169.897 4.93517C170.784 4.31172 171.912 4 173.282 4C175.092 4 176.603 4.35145 177.814 5.05435L177.043 6.97053C175.863 6.41432 174.689 6.13621 173.521 6.13621C172.053 6.13621 171.298 6.58546 171.255 7.48396C171.255 7.53285 171.255 7.57869 171.255 7.62148C171.255 8.0799 171.368 8.43746 171.594 8.69417C171.827 8.95088 172.298 9.1862 173.007 9.40013L175.309 10.0878C176.239 10.3689 176.927 10.812 177.373 11.4172C177.826 12.0223 178.052 12.8841 178.052 14.0026C178.052 15.115 177.694 16.0594 176.979 16.8356C176.269 17.6119 175.114 18 173.511 18Z" fill="white"/>
<path d="M185.459 18C184.621 18 183.735 17.89 182.799 17.6699C181.863 17.4499 181.056 17.1504 180.377 16.7714L181.313 14.7819C182.671 15.5032 184.074 15.8638 185.523 15.8638C186.251 15.8638 186.765 15.714 187.065 15.4145C187.364 15.115 187.514 14.6658 187.514 14.0668C187.514 13.9507 187.502 13.7765 187.477 13.5442C187.422 12.9941 186.811 12.5449 185.643 12.1965L183.331 11.518C182.622 11.3102 182.053 11.0138 181.625 10.6287C181.197 10.2375 180.906 9.8127 180.753 9.35429C180.601 8.88976 180.524 8.34883 180.524 7.7315C180.524 6.49072 180.964 5.55861 181.845 4.93517C182.732 4.31172 183.86 4 185.23 4C187.04 4 188.551 4.35145 189.761 5.05435L188.991 6.97053C187.811 6.41432 186.637 6.13621 185.468 6.13621C184.001 6.13621 183.245 6.58546 183.203 7.48396C183.203 7.53285 183.203 7.57869 183.203 7.62148C183.203 8.0799 183.316 8.43746 183.542 8.69417C183.774 8.95088 184.245 9.1862 184.955 9.40013L187.257 10.0878C188.187 10.3689 188.875 10.812 189.321 11.4172C189.774 12.0223 190 12.8841 190 14.0026C190 15.115 189.642 16.0594 188.927 16.8356C188.217 17.6119 187.062 18 185.459 18Z" fill="white"/>
<path d="M53.55 27.2418C53.55 27.5045 53.4623 27.7284 53.2868 27.9134C53.1176 28.0985 52.8638 28.2179 52.5253 28.2716V28.3075C52.8826 28.3493 53.1677 28.4657 53.3808 28.6567C53.6002 28.8478 53.7099 29.0925 53.7099 29.391C53.7099 29.6716 53.6315 29.9224 53.4748 30.1433C53.3244 30.3642 53.0831 30.5373 52.751 30.6627C52.4188 30.7881 51.9832 30.8507 51.4442 30.8507H49V25.9612H51.4442C51.8453 25.9612 52.2026 26.003 52.5159 26.0866C52.8356 26.1642 53.0863 26.2955 53.268 26.4806C53.456 26.6657 53.55 26.9194 53.55 27.2418ZM52.1305 27.3493C52.1305 27.0507 51.8829 26.9015 51.3878 26.9015H50.4007V27.8687H51.228C51.5226 27.8687 51.7451 27.8299 51.8955 27.7522C52.0522 27.6687 52.1305 27.5343 52.1305 27.3493ZM52.2621 29.3194C52.2621 29.1284 52.1838 28.991 52.0271 28.9075C51.8704 28.8179 51.6354 28.7731 51.322 28.7731H50.4007V29.9284H51.3502C51.6135 29.9284 51.8297 29.8836 51.9989 29.794C52.1744 29.6985 52.2621 29.5403 52.2621 29.3194Z" fill="#808080"/>
<path d="M56.9993 30.9403C56.2347 30.9403 55.6424 30.7403 55.2225 30.3403C54.8089 29.9343 54.6021 29.2985 54.6021 28.4328C54.6021 27.8358 54.7086 27.3493 54.9217 26.9731C55.1348 26.597 55.4294 26.3194 55.8054 26.1403C56.1877 25.9612 56.6264 25.8716 57.1215 25.8716C57.4725 25.8716 57.7764 25.9045 58.0334 25.9701C58.2966 26.0358 58.5254 26.1134 58.7197 26.203L58.306 27.2328C58.0867 27.1493 57.8799 27.0806 57.6856 27.0269C57.4976 26.9731 57.3095 26.9463 57.1215 26.9463C56.3945 26.9463 56.031 27.4388 56.031 28.4239C56.031 28.9134 56.125 29.2746 56.313 29.5075C56.5073 29.7403 56.7768 29.8567 57.1215 29.8567C57.4161 29.8567 57.6762 29.8209 57.9018 29.7493C58.1274 29.6716 58.3468 29.5672 58.5599 29.4358V30.5731C58.3468 30.7045 58.1211 30.797 57.883 30.8507C57.6511 30.9104 57.3565 30.9403 56.9993 30.9403Z" fill="#808080"/>
<path d="M61.8565 25.8716C62.5647 25.8716 63.1256 26.0657 63.5393 26.4537C63.9529 26.8358 64.1597 27.3821 64.1597 28.0925V28.7373H60.8506C60.8631 29.1134 60.9791 29.409 61.1984 29.6239C61.4241 29.8388 61.7343 29.9463 62.1291 29.9463C62.4613 29.9463 62.7621 29.9164 63.0316 29.8567C63.3011 29.791 63.58 29.6925 63.8683 29.5612V30.591C63.6176 30.7104 63.3512 30.797 63.0692 30.8507C62.7935 30.9104 62.4582 30.9403 62.0633 30.9403C61.5494 30.9403 61.095 30.8507 60.7002 30.6716C60.3053 30.4866 59.9951 30.209 59.7695 29.8388C59.5439 29.4687 59.4311 29.003 59.4311 28.4418C59.4311 27.8687 59.5313 27.394 59.7319 27.0179C59.9387 26.6358 60.2239 26.3493 60.5874 26.1582C60.9509 25.9672 61.3739 25.8716 61.8565 25.8716ZM61.8659 26.8209C61.5964 26.8209 61.3708 26.9045 61.189 27.0716C61.0135 27.2388 60.9101 27.4985 60.8788 27.8507H62.8436C62.8373 27.5522 62.7559 27.3075 62.5992 27.1164C62.4425 26.9194 62.1981 26.8209 61.8659 26.8209Z" fill="#808080"/>
<path d="M72.7952 28.397C72.7952 29.209 72.5696 29.8358 72.1183 30.2776C71.6734 30.7194 71.0654 30.9403 70.2946 30.9403C69.8182 30.9403 69.3921 30.8418 69.016 30.6448C68.6463 30.4478 68.3548 30.1612 68.1417 29.7851C67.9287 29.403 67.8221 28.9403 67.8221 28.397C67.8221 27.5851 68.0446 26.9612 68.4896 26.5254C68.9346 26.0896 69.5456 25.8716 70.3228 25.8716C70.8053 25.8716 71.2315 25.9701 71.6013 26.1672C71.9711 26.3642 72.2625 26.6507 72.4756 27.0269C72.6887 27.397 72.7952 27.8537 72.7952 28.397ZM69.2511 28.397C69.2511 28.8806 69.3325 29.2478 69.4955 29.4985C69.6647 29.7433 69.9373 29.8657 70.3134 29.8657C70.6831 29.8657 70.9495 29.7433 71.1124 29.4985C71.2817 29.2478 71.3663 28.8806 71.3663 28.397C71.3663 27.9134 71.2817 27.5522 71.1124 27.3134C70.9495 27.0687 70.68 26.9463 70.304 26.9463C69.9342 26.9463 69.6647 27.0687 69.4955 27.3134C69.3325 27.5522 69.2511 27.9134 69.2511 28.397Z" fill="#808080"/>
<path d="M76.4794 27.9224C76.4794 26.8418 76.6925 26.003 77.1187 25.406C77.5511 24.809 78.2625 24.4269 79.2527 24.2597C79.5848 24.206 79.9202 24.1612 80.2586 24.1254C80.6033 24.0836 80.9574 24.0418 81.3209 24L81.4807 25.1642C81.2676 25.1881 81.0326 25.2149 80.7756 25.2448C80.5249 25.2746 80.2743 25.3045 80.0236 25.3343C79.7791 25.3582 79.5598 25.3851 79.3655 25.4149C79.0521 25.4627 78.792 25.5373 78.5852 25.6388C78.3784 25.7343 78.2186 25.8896 78.1058 26.1045C77.9992 26.3194 77.9334 26.6299 77.9084 27.0358H77.9742C78.0494 26.9224 78.1528 26.809 78.2844 26.6955C78.4223 26.5821 78.5915 26.4866 78.792 26.409C78.9926 26.3313 79.2213 26.2925 79.4783 26.2925C80.0925 26.2925 80.5782 26.4716 80.9355 26.8299C81.299 27.1881 81.4807 27.7224 81.4807 28.4328C81.4807 28.9881 81.3742 29.4507 81.1611 29.8209C80.948 30.191 80.6534 30.4716 80.2774 30.6627C79.9013 30.8478 79.4658 30.9403 78.9707 30.9403C78.2123 30.9403 77.6075 30.6806 77.1563 30.1612C76.705 29.6418 76.4794 28.8955 76.4794 27.9224ZM79.0553 29.8567C79.3498 29.8567 79.588 29.7612 79.7697 29.5701C79.9578 29.3791 80.0518 29.0388 80.0518 28.5493C80.0518 28.1612 79.9828 27.8537 79.8449 27.6269C79.7133 27.394 79.4814 27.2776 79.1493 27.2776C78.9487 27.2776 78.7607 27.3254 78.5852 27.4209C78.416 27.5104 78.2719 27.6149 78.1528 27.7343C78.0337 27.8478 77.9522 27.9463 77.9084 28.0299C77.9084 28.3343 77.9428 28.6269 78.0118 28.9075C78.0807 29.1881 78.1966 29.4179 78.3596 29.597C78.5288 29.7701 78.7607 29.8567 79.0553 29.8567Z" fill="#808080"/>
<path d="M83.9914 25.9612V27.8955C83.9914 27.997 83.9851 28.1224 83.9726 28.2716C83.9663 28.4209 83.9569 28.5731 83.9444 28.7284C83.9381 28.8836 83.9287 29.0209 83.9162 29.1403C83.9037 29.2597 83.8943 29.3433 83.888 29.391L86.257 25.9612H87.9398V30.8507H86.5861V28.8985C86.5861 28.7373 86.5923 28.5612 86.6049 28.3701C86.6174 28.1731 86.6299 27.991 86.6425 27.8239C86.6613 27.6507 86.6738 27.5194 86.6801 27.4299L84.3204 30.8507H82.6377V25.9612H83.9914Z" fill="#808080"/>
<path d="M91.2746 25.8716C91.6443 25.8716 91.989 25.9194 92.3087 26.0149C92.6346 26.1045 92.8946 26.2448 93.0889 26.4358C93.2895 26.6269 93.3898 26.8716 93.3898 27.1701C93.3898 27.4627 93.2958 27.6955 93.1077 27.8687C92.926 28.0418 92.6784 28.1672 92.3651 28.2448V28.2896C92.5844 28.3373 92.7818 28.406 92.9573 28.4955C93.1328 28.5791 93.2707 28.6955 93.371 28.8448C93.4775 28.9881 93.5308 29.1821 93.5308 29.4269C93.5308 29.6955 93.4399 29.9463 93.2582 30.1791C93.0827 30.406 92.8069 30.591 92.4309 30.7343C92.0611 30.8716 91.5848 30.9403 91.0019 30.9403C90.1496 30.9403 89.4915 30.8388 89.0277 30.6358V29.5343C89.2408 29.6299 89.5009 29.7164 89.808 29.794C90.1214 29.8716 90.4535 29.9104 90.8045 29.9104C91.1868 29.9104 91.5096 29.8687 91.7728 29.7851C92.036 29.7015 92.1676 29.5552 92.1676 29.3463C92.1676 28.9582 91.6819 28.7642 90.7105 28.7642H90.1652V27.8418H90.6823C91.1461 27.8418 91.5033 27.806 91.754 27.7343C92.011 27.6627 92.1394 27.5284 92.1394 27.3313C92.1394 27.1761 92.058 27.0597 91.895 26.9821C91.7321 26.8985 91.4657 26.8567 91.0959 26.8567C90.8515 26.8567 90.5852 26.8836 90.2969 26.9373C90.0086 26.991 89.7359 27.0687 89.479 27.1701L89.0653 26.2388C89.3599 26.1313 89.6827 26.0448 90.0336 25.9791C90.3846 25.9075 90.7982 25.8716 91.2746 25.8716Z" fill="#808080"/>
<path d="M96.0191 25.9612V27.8418H97.9745V25.9612H99.3752V30.8507H97.9745V28.8358H96.0191V30.8507H94.6183V25.9612H96.0191Z" fill="#808080"/>
<path d="M102.958 25.8716C103.666 25.8716 104.227 26.0657 104.641 26.4537C105.054 26.8358 105.261 27.3821 105.261 28.0925V28.7373H101.952C101.965 29.1134 102.081 29.409 102.3 29.6239C102.526 29.8388 102.836 29.9463 103.231 29.9463C103.563 29.9463 103.864 29.9164 104.133 29.8567C104.403 29.791 104.681 29.6925 104.97 29.5612V30.591C104.719 30.7104 104.453 30.797 104.171 30.8507C103.895 30.9104 103.56 30.9403 103.165 30.9403C102.651 30.9403 102.197 30.8507 101.802 30.6716C101.407 30.4866 101.097 30.209 100.871 29.8388C100.645 29.4687 100.533 29.003 100.533 28.4418C100.533 27.8687 100.633 27.394 100.833 27.0179C101.04 26.6358 101.325 26.3493 101.689 26.1582C102.052 25.9672 102.475 25.8716 102.958 25.8716ZM102.967 26.8209C102.698 26.8209 102.472 26.9045 102.291 27.0716C102.115 27.2388 102.012 27.4985 101.98 27.8507H103.945C103.939 27.5522 103.857 27.3075 103.701 27.1164C103.544 26.9194 103.3 26.8209 102.967 26.8209Z" fill="#808080"/>
<path d="M108.484 30.9403C107.719 30.9403 107.127 30.7403 106.707 30.3403C106.294 29.9343 106.087 29.2985 106.087 28.4328C106.087 27.8358 106.193 27.3493 106.406 26.9731C106.62 26.597 106.914 26.3194 107.29 26.1403C107.672 25.9612 108.111 25.8716 108.606 25.8716C108.957 25.8716 109.261 25.9045 109.518 25.9701C109.781 26.0358 110.01 26.1134 110.204 26.203L109.791 27.2328C109.571 27.1493 109.365 27.0806 109.17 27.0269C108.982 26.9731 108.794 26.9463 108.606 26.9463C107.879 26.9463 107.516 27.4388 107.516 28.4239C107.516 28.9134 107.61 29.2746 107.798 29.5075C107.992 29.7403 108.262 29.8567 108.606 29.8567C108.901 29.8567 109.161 29.8209 109.387 29.7493C109.612 29.6716 109.832 29.5672 110.045 29.4358V30.5731C109.832 30.7045 109.606 30.797 109.368 30.8507C109.136 30.9104 108.841 30.9403 108.484 30.9403Z" fill="#808080"/>
<path d="M113.341 25.8716C114.049 25.8716 114.61 26.0657 115.024 26.4537C115.438 26.8358 115.644 27.3821 115.644 28.0925V28.7373H112.335C112.348 29.1134 112.464 29.409 112.683 29.6239C112.909 29.8388 113.219 29.9463 113.614 29.9463C113.946 29.9463 114.247 29.9164 114.516 29.8567C114.786 29.791 115.065 29.6925 115.353 29.5612V30.591C115.102 30.7104 114.836 30.797 114.554 30.8507C114.278 30.9104 113.943 30.9403 113.548 30.9403C113.034 30.9403 112.58 30.8507 112.185 30.6716C111.79 30.4866 111.48 30.209 111.254 29.8388C111.029 29.4687 110.916 29.003 110.916 28.4418C110.916 27.8687 111.016 27.394 111.217 27.0179C111.423 26.6358 111.709 26.3493 112.072 26.1582C112.436 25.9672 112.859 25.8716 113.341 25.8716ZM113.351 26.8209C113.081 26.8209 112.856 26.9045 112.674 27.0716C112.498 27.2388 112.395 27.4985 112.364 27.8507H114.328C114.322 27.5522 114.241 27.3075 114.084 27.1164C113.927 26.9194 113.683 26.8209 113.351 26.8209Z" fill="#808080"/>
<path d="M120.971 25.9612V27.8955C120.971 27.997 120.965 28.1224 120.952 28.2716C120.946 28.4209 120.936 28.5731 120.924 28.7284C120.918 28.8836 120.908 29.0209 120.896 29.1403C120.883 29.2597 120.874 29.3433 120.867 29.391L123.236 25.9612H124.919V30.8507H123.565V28.8985C123.565 28.7373 123.572 28.5612 123.584 28.3701C123.597 28.1731 123.609 27.991 123.622 27.8239C123.641 27.6507 123.653 27.5194 123.659 27.4299L121.3 30.8507H119.617V25.9612H120.971Z" fill="#808080"/>
<path d="M132.078 25.8716C132.654 25.8716 133.121 26.0866 133.479 26.5164C133.836 26.9403 134.014 27.5672 134.014 28.397C134.014 29.2269 133.83 29.8597 133.46 30.2955C133.09 30.7254 132.617 30.9403 132.04 30.9403C131.67 30.9403 131.376 30.8776 131.157 30.7522C130.937 30.6209 130.759 30.4746 130.621 30.3134H130.546C130.596 30.5642 130.621 30.803 130.621 31.0299V33H129.22V25.9612H130.357L130.555 26.597H130.621C130.759 26.4 130.943 26.2299 131.175 26.0866C131.407 25.9433 131.708 25.8716 132.078 25.8716ZM131.627 26.9373C131.263 26.9373 131.006 27.0448 130.856 27.2597C130.712 27.4746 130.633 27.803 130.621 28.2448V28.3881C130.621 28.8597 130.693 29.2239 130.837 29.4806C130.987 29.7313 131.257 29.8567 131.645 29.8567C131.965 29.8567 132.2 29.7313 132.35 29.4806C132.507 29.2239 132.586 28.8567 132.586 28.3791C132.586 27.4179 132.266 26.9373 131.627 26.9373Z" fill="#808080"/>
<path d="M137.275 25.8627C137.964 25.8627 138.491 26.006 138.854 26.2925C139.224 26.5731 139.409 27.006 139.409 27.591V30.8507H138.431L138.159 30.1881H138.121C137.902 30.4507 137.67 30.6418 137.425 30.7612C137.181 30.8806 136.846 30.9403 136.419 30.9403C135.962 30.9403 135.583 30.8149 135.282 30.5642C134.981 30.3075 134.831 29.9164 134.831 29.391C134.831 28.8716 135.022 28.4896 135.404 28.2448C135.786 27.994 136.36 27.8567 137.124 27.8328L138.017 27.806V27.591C138.017 27.3343 137.945 27.1463 137.801 27.0269C137.663 26.9075 137.469 26.8478 137.218 26.8478C136.968 26.8478 136.723 26.8836 136.485 26.9552C136.247 27.0209 136.009 27.1045 135.771 27.206L135.31 26.3015C135.586 26.1642 135.89 26.0567 136.222 25.9791C136.56 25.9015 136.911 25.8627 137.275 25.8627ZM138.017 28.5851L137.472 28.603C137.021 28.6149 136.708 28.6925 136.532 28.8358C136.357 28.9791 136.269 29.1672 136.269 29.4C136.269 29.603 136.332 29.7493 136.457 29.8388C136.582 29.9224 136.745 29.9642 136.946 29.9642C137.247 29.9642 137.5 29.8806 137.707 29.7134C137.914 29.5403 138.017 29.2985 138.017 28.9881V28.5851Z" fill="#808080"/>
<path d="M142.713 25.8716C143.083 25.8716 143.428 25.9194 143.747 26.0149C144.073 26.1045 144.333 26.2448 144.528 26.4358C144.728 26.6269 144.829 26.8716 144.829 27.1701C144.829 27.4627 144.735 27.6955 144.547 27.8687C144.365 28.0418 144.117 28.1672 143.804 28.2448V28.2896C144.023 28.3373 144.221 28.406 144.396 28.4955C144.572 28.5791 144.71 28.6955 144.81 28.8448C144.916 28.9881 144.97 29.1821 144.97 29.4269C144.97 29.6955 144.879 29.9463 144.697 30.1791C144.521 30.406 144.246 30.591 143.87 30.7343C143.5 30.8716 143.024 30.9403 142.441 30.9403C141.588 30.9403 140.93 30.8388 140.467 30.6358V29.5343C140.68 29.6299 140.94 29.7164 141.247 29.794C141.56 29.8716 141.892 29.9104 142.243 29.9104C142.626 29.9104 142.948 29.8687 143.212 29.7851C143.475 29.7015 143.606 29.5552 143.606 29.3463C143.606 28.9582 143.121 28.7642 142.149 28.7642H141.604V27.8418H142.121C142.585 27.8418 142.942 27.806 143.193 27.7343C143.45 27.6627 143.578 27.5284 143.578 27.3313C143.578 27.1761 143.497 27.0597 143.334 26.9821C143.171 26.8985 142.905 26.8567 142.535 26.8567C142.29 26.8567 142.024 26.8836 141.736 26.9373C141.447 26.991 141.175 27.0687 140.918 27.1701L140.504 26.2388C140.799 26.1313 141.122 26.0448 141.472 25.9791C141.823 25.9075 142.237 25.8716 142.713 25.8716Z" fill="#808080"/>
<path d="M150.607 27.2418C150.607 27.5045 150.519 27.7284 150.344 27.9134C150.175 28.0985 149.921 28.2179 149.583 28.2716V28.3075C149.94 28.3493 150.225 28.4657 150.438 28.6567C150.657 28.8478 150.767 29.0925 150.767 29.391C150.767 29.6716 150.689 29.9224 150.532 30.1433C150.382 30.3642 150.14 30.5373 149.808 30.6627C149.476 30.7881 149.04 30.8507 148.501 30.8507H146.057V25.9612H148.501C148.903 25.9612 149.26 26.003 149.573 26.0866C149.893 26.1642 150.143 26.2955 150.325 26.4806C150.513 26.6657 150.607 26.9194 150.607 27.2418ZM149.188 27.3493C149.188 27.0507 148.94 26.9015 148.445 26.9015H147.458V27.8687H148.285C148.58 27.8687 148.802 27.8299 148.953 27.7522C149.109 27.6687 149.188 27.5343 149.188 27.3493ZM149.319 29.3194C149.319 29.1284 149.241 28.991 149.084 28.9075C148.928 28.8179 148.693 28.7731 148.379 28.7731H147.458V29.9284H148.407C148.671 29.9284 148.887 29.8836 149.056 29.794C149.232 29.6985 149.319 29.5403 149.319 29.3194Z" fill="#808080"/>
<path d="M153.323 25.9612V27.8955C153.323 27.997 153.317 28.1224 153.304 28.2716C153.298 28.4209 153.289 28.5731 153.276 28.7284C153.27 28.8836 153.261 29.0209 153.248 29.1403C153.235 29.2597 153.226 29.3433 153.22 29.391L155.589 25.9612H157.272V30.8507H155.918V28.8985C155.918 28.7373 155.924 28.5612 155.937 28.3701C155.949 28.1731 155.962 27.991 155.974 27.8239C155.993 27.6507 156.006 27.5194 156.012 27.4299L153.652 30.8507H151.969V25.9612H153.323Z" fill="#808080"/>
<path d="M162.985 26.9642H161.302V30.8507H159.901V26.9642H158.219V25.9612H162.985V26.9642Z" fill="#808080"/>
<path d="M165.286 25.9612V27.8955C165.286 27.997 165.279 28.1224 165.267 28.2716C165.26 28.4209 165.251 28.5731 165.239 28.7284C165.232 28.8836 165.223 29.0209 165.21 29.1403C165.198 29.2597 165.188 29.3433 165.182 29.391L167.551 25.9612H169.234V30.8507H167.88V28.8985C167.88 28.7373 167.886 28.5612 167.899 28.3701C167.912 28.1731 167.924 27.991 167.937 27.8239C167.955 27.6507 167.968 27.5194 167.974 27.4299L165.615 30.8507H163.932V25.9612H165.286Z" fill="#808080"/>
<path d="M172.052 25.9612V27.8955C172.052 27.997 172.045 28.1224 172.033 28.2716C172.027 28.4209 172.017 28.5731 172.005 28.7284C171.998 28.8836 171.989 29.0209 171.976 29.1403C171.964 29.2597 171.954 29.3433 171.948 29.391L174.317 25.9612H176V30.8507H174.646V28.8985C174.646 28.7373 174.653 28.5612 174.665 28.3701C174.678 28.1731 174.69 27.991 174.703 27.8239C174.721 27.6507 174.734 27.5194 174.74 27.4299L172.381 30.8507H170.698V25.9612H172.052Z" fill="#808080"/>
<path d="M5 9.84615H30V7.38462H5V9.84615ZM18.75 24.6154H27.5V22.1538H18.75V24.6154ZM18.75 19.6923H30V17.2308H18.75V19.6923ZM18.75 14.7692H30V12.3077H18.75V14.7692ZM5 24.6154H16.25V12.3077H5V24.6154ZM35 4.92308V0H0V27.0769C0 27.0769 0 32 5 32H36.25C36.25 32 40 31.9237 40 27.0769V4.92308H35ZM5 29.5385C2.5 29.5385 2.5 27.0769 2.5 27.0769V2.46154H32.5V27.0769C32.5 28.2105 32.855 28.9945 33.345 29.5385H5Z" fill="white"/>
</svg>
