<svg width="203" height="34" viewBox="0 0 203 34" fill="none" xmlns="http://www.w3.org/2000/svg">
<path d="M52.6279 17.4641V5.97639H48.8507V3.89941H59.1253V5.97639H55.3482V17.4641H52.6279Z" fill="#FF5722"/>
<path d="M61.4089 17.4641V3.89941H64.1476V9.67084H70.1028V3.89941H72.8415V17.4641H70.1028V11.8121H64.1476V17.4641H61.4089Z" fill="#FF5722"/>
<path d="M79.6006 13.062H83.8465L81.7603 5.93044L79.6006 13.062ZM75.4191 17.4641L79.8855 3.89941H83.5065L88.028 17.4641H85.1331L84.3703 14.8817H79.0584L78.2681 17.4641H75.4191Z" fill="#FF5722"/>
<path d="M90.3116 17.4641V15.4239H92.7838V5.93044H90.3116V3.89941H97.9578V5.93044H95.504V15.4239H97.9578V17.4641H90.3116Z" fill="#FF5722"/>
<path d="M106.546 9.35839H109.367C110.237 9.35839 110.755 9.12864 110.92 8.66913C111.012 8.4118 111.058 8.02888 111.058 7.52036C111.058 7.00571 111 6.63198 110.884 6.39916C110.773 6.16634 110.568 6.00398 110.268 5.91208C109.968 5.81405 109.499 5.76504 108.862 5.76504H106.546V9.35839ZM106.546 15.5526H109.193C109.744 15.5526 110.173 15.525 110.479 15.4699C110.792 15.4147 111.043 15.2983 111.233 15.1206C111.429 14.943 111.555 14.7163 111.61 14.4406C111.671 14.1649 111.702 13.8279 111.702 13.4296C111.702 13.0253 111.689 12.722 111.665 12.5198C111.604 12.0052 111.411 11.6253 111.086 11.3802C110.761 11.129 110.222 11.0034 109.468 11.0034H106.546V15.5526ZM103.816 17.4641V3.89943H109.036C110.899 3.89943 112.173 4.19045 112.86 4.7725C113.215 5.07884 113.466 5.44338 113.613 5.86613C113.766 6.28888 113.843 6.84641 113.843 7.53874C113.843 8.23106 113.72 8.78554 113.475 9.20216C113.23 9.61265 112.774 9.90368 112.106 10.0752C113.013 10.1978 113.625 10.5409 113.944 11.1045C114.263 11.6682 114.422 12.4157 114.422 13.3469C114.422 13.4021 114.422 13.4572 114.422 13.5123C114.422 14.848 114.054 15.8405 113.319 16.49C112.584 17.1394 111.377 17.4641 109.698 17.4641H103.816Z" fill="white"/>
<path d="M122.936 17.7031C120.388 17.7031 118.718 17.0965 117.928 15.8834C117.48 15.1972 117.257 14.2904 117.257 13.1631V3.89024H119.986V13.2826C119.986 14.1342 120.228 14.7285 120.712 15.0655C121.202 15.3963 121.947 15.5618 122.946 15.5618C123.944 15.5618 124.661 15.3963 125.096 15.0655C125.537 14.7346 125.758 14.1403 125.758 13.2826V3.89024H128.487V13.0528C128.487 14.8541 127.954 16.1101 126.888 16.8208C125.994 17.409 124.676 17.7031 122.936 17.7031Z" fill="white"/>
<path d="M136.487 17.7031C135.648 17.7031 134.759 17.5928 133.822 17.3722C132.885 17.1517 132.076 16.8514 131.396 16.4716L132.333 14.4773C133.693 15.2003 135.099 15.5618 136.551 15.5618C137.281 15.5618 137.795 15.4117 138.095 15.1114C138.396 14.8112 138.546 14.3609 138.546 13.7605C138.546 13.6441 138.533 13.4695 138.509 13.2366C138.454 12.6852 137.841 12.2349 136.671 11.8857L134.355 11.2056C133.644 10.9973 133.074 10.7002 132.646 10.3142C132.217 9.92206 131.926 9.49624 131.773 9.03674C131.619 8.5711 131.543 8.02888 131.543 7.41008C131.543 6.16634 131.984 5.23201 132.866 4.60707C133.755 3.98214 134.885 3.66968 136.257 3.66968C138.071 3.66968 139.584 4.02197 140.797 4.72655L140.025 6.64729C138.843 6.08976 137.666 5.81099 136.496 5.81099C135.026 5.81099 134.269 6.26131 134.226 7.16194C134.226 7.21096 134.226 7.25691 134.226 7.29979C134.226 7.7593 134.34 8.11772 134.566 8.37504C134.799 8.63237 135.271 8.86825 135.982 9.08269L138.288 9.77195C139.22 10.0538 139.909 10.498 140.356 11.1045C140.81 11.7111 141.036 12.575 141.036 13.6962C141.036 14.8112 140.678 15.7578 139.961 16.5359C139.25 17.314 138.092 17.7031 136.487 17.7031Z" fill="white"/>
<path d="M143.715 17.4641V15.4239H146.187V5.93046H143.715V3.89943H151.361V5.93046H148.907V15.4239H151.361V17.4641H143.715Z" fill="white"/>
<path d="M154.748 17.4641V3.89943H156.797L163.846 13.1999V3.89943H166.272V17.4641H164.223L157.201 8.31071V17.4641H154.748Z" fill="white"/>
<path d="M169.953 17.4641V3.89943H178.839V5.95803H172.673V9.56058H178.141V11.5273H172.673V15.4055H178.941V17.4641H169.953Z" fill="white"/>
<path d="M186.481 17.7031C185.641 17.7031 184.753 17.5928 183.816 17.3722C182.878 17.1517 182.07 16.8514 181.39 16.4716L182.327 14.4773C183.687 15.2003 185.093 15.5618 186.545 15.5618C187.274 15.5618 187.789 15.4117 188.089 15.1114C188.389 14.8112 188.539 14.3609 188.539 13.7605C188.539 13.6441 188.527 13.4695 188.503 13.2366C188.448 12.6852 187.835 12.2349 186.665 11.8857L184.349 11.2056C183.638 10.9973 183.068 10.7002 182.639 10.3142C182.21 9.92206 181.919 9.49624 181.766 9.03674C181.613 8.5711 181.537 8.02888 181.537 7.41008C181.537 6.16634 181.978 5.23201 182.86 4.60707C183.748 3.98214 184.879 3.66968 186.251 3.66968C188.065 3.66968 189.578 4.02197 190.791 4.72655L190.019 6.64729C188.837 6.08976 187.66 5.81099 186.49 5.81099C185.02 5.81099 184.263 6.26131 184.22 7.16194C184.22 7.21096 184.22 7.25691 184.22 7.29979C184.22 7.7593 184.333 8.11772 184.56 8.37504C184.793 8.63237 185.265 8.86825 185.975 9.08269L188.282 9.77195C189.213 10.0538 189.903 10.498 190.35 11.1045C190.803 11.7111 191.03 12.575 191.03 13.6962C191.03 14.8112 190.672 15.7578 189.955 16.5359C189.244 17.314 188.086 17.7031 186.481 17.7031Z" fill="white"/>
<path d="M198.451 17.7031C197.612 17.7031 196.723 17.5928 195.786 17.3722C194.848 17.1517 194.04 16.8514 193.36 16.4716L194.297 14.4773C195.657 15.2003 197.063 15.5618 198.515 15.5618C199.244 15.5618 199.759 15.4117 200.059 15.1114C200.359 14.8112 200.509 14.3609 200.509 13.7605C200.509 13.6441 200.497 13.4695 200.473 13.2366C200.418 12.6852 199.805 12.2349 198.635 11.8857L196.319 11.2056C195.608 10.9973 195.038 10.7002 194.609 10.3142C194.181 9.92206 193.889 9.49624 193.736 9.03674C193.583 8.5711 193.507 8.02888 193.507 7.41008C193.507 6.16634 193.948 5.23201 194.83 4.60707C195.718 3.98214 196.849 3.66968 198.221 3.66968C200.035 3.66968 201.548 4.02197 202.761 4.72655L201.989 6.64729C200.807 6.08976 199.63 5.81099 198.46 5.81099C196.99 5.81099 196.233 6.26131 196.19 7.16194C196.19 7.21096 196.19 7.25691 196.19 7.29979C196.19 7.7593 196.303 8.11772 196.53 8.37504C196.763 8.63237 197.235 8.86825 197.945 9.08269L200.252 9.77195C201.183 10.0538 201.873 10.498 202.32 11.1045C202.773 11.7111 203 12.575 203 13.6962C203 14.8112 202.642 15.7578 201.925 16.5359C201.214 17.314 200.056 17.7031 198.451 17.7031Z" fill="white"/>
<path d="M51.4847 31.3405C50.6691 31.3405 50.0763 31.1523 49.7061 30.7758C49.3422 30.3931 49.1603 29.841 49.1603 29.1195V26.0611H50.5719V29.1948C50.5719 29.5273 50.644 29.7814 50.7883 29.9571C50.9389 30.1265 51.171 30.2112 51.4847 30.2112C51.7984 30.2112 52.0274 30.1265 52.1717 29.9571C52.3223 29.7814 52.3976 29.5273 52.3976 29.1948V26.0611H53.8092V29.1195C53.8092 29.841 53.6241 30.3931 53.2539 30.7758C52.8901 31.1523 52.3003 31.3405 51.4847 31.3405Z" fill="#808080"/>
<path d="M55.1906 31.2181V26.0611H56.2258L56.414 26.8704H56.4893C56.5959 26.6131 56.781 26.3998 57.0445 26.2304C57.308 26.0548 57.6499 25.9669 58.0703 25.9669C59.2686 25.9669 59.8677 26.61 59.8677 27.8961V31.2181H58.4561V28.1785C58.4561 27.8271 58.3839 27.5762 58.2396 27.4256C58.1016 27.2688 57.8977 27.1903 57.628 27.1903C57.3017 27.1903 57.0476 27.3221 56.8657 27.5856C56.69 27.8491 56.6022 28.2381 56.6022 28.7525V31.2181H55.1906Z" fill="#808080"/>
<path d="M61.181 31.2181V28.1596C61.181 27.4382 61.3724 26.8892 61.7551 26.5128C62.1378 26.1301 62.7432 25.9387 63.5713 25.9387C64.4058 25.9387 65.008 26.1301 65.3782 26.5128C65.7546 26.8892 65.9428 27.4382 65.9428 28.1596V31.2181H64.5406V28.1408C64.5406 27.8083 64.4622 27.5479 64.3054 27.3597C64.1548 27.1652 63.9039 27.068 63.5525 27.068C63.2075 27.068 62.9565 27.1652 62.7997 27.3597C62.6491 27.5479 62.5738 27.8083 62.5738 28.1408V28.9596L62.602 28.969C62.7212 28.7243 62.8624 28.5643 63.0255 28.489C63.1949 28.4075 63.4239 28.3667 63.7125 28.3667H63.929V29.4207H63.7125C63.3988 29.4207 63.1604 29.474 62.9973 29.5807C62.8342 29.6873 62.7212 29.8285 62.6585 30.0041C62.602 30.1735 62.5738 30.3649 62.5738 30.5782V31.2181H61.181Z" fill="#808080"/>
<path d="M68.6389 31.3405C68.3189 31.3405 68.0178 31.3028 67.7354 31.2275C67.4531 31.1585 67.1896 31.0582 66.9449 30.9264L67.3214 29.9006C67.4594 29.9822 67.6257 30.0543 67.8201 30.1171C68.0146 30.1798 68.206 30.2112 68.3942 30.2112C68.7455 30.2112 69.0247 30.0794 69.2318 29.8159C69.4388 29.5462 69.5423 29.1446 69.5423 28.6114C69.5423 28.1095 69.4388 27.7268 69.2318 27.4633C69.0247 27.1998 68.7016 27.068 68.2624 27.068C68.0554 27.068 67.8421 27.0994 67.6225 27.1621C67.4029 27.2186 67.221 27.2907 67.0767 27.3786V26.221C67.2712 26.1332 67.4908 26.0642 67.7354 26.014C67.9801 25.9638 68.2405 25.9387 68.5165 25.9387C69.3823 25.9387 70.0097 26.1771 70.3987 26.6539C70.7877 27.1245 70.9821 27.7769 70.9821 28.6114C70.9821 29.5022 70.7783 30.1798 70.3705 30.6441C69.9627 31.1083 69.3855 31.3405 68.6389 31.3405Z" fill="#808080"/>
<path d="M73.4635 31.2181V27.8114C73.4635 27.5479 73.4008 27.3566 73.2753 27.2374C73.1561 27.1182 72.9585 27.0586 72.6824 27.0586C72.4754 27.0586 72.284 27.0868 72.1083 27.1433C71.939 27.1998 71.779 27.2688 71.6284 27.3503V26.221C71.7664 26.1583 71.9609 26.0956 72.2119 26.0328C72.4628 25.9701 72.7577 25.9387 73.0965 25.9387C73.4415 25.9387 73.7458 25.9889 74.0093 26.0893C74.2791 26.1897 74.4893 26.3591 74.6398 26.5975C74.7967 26.8296 74.8751 27.1496 74.8751 27.5574V31.2181H73.4635Z" fill="#808080"/>
<path d="M79.2282 31.3122C78.7828 31.3122 78.422 31.2275 78.146 31.0582C77.8762 30.8888 77.6849 30.6723 77.5719 30.4088H77.4967L77.3461 31.2181H76.2733V26.0611H77.6849V28.5267C77.6849 29.0599 77.7758 29.4552 77.9578 29.7124C78.1397 29.9634 78.3969 30.0888 78.7295 30.0888C78.993 30.0888 79.1937 30.0104 79.3317 29.8536C79.4698 29.6967 79.5388 29.4458 79.5388 29.1007V26.0611H80.9504V29.4113C80.9504 30.0198 80.803 30.4904 80.5081 30.8229C80.2195 31.1491 79.7929 31.3122 79.2282 31.3122Z" fill="#808080"/>
<path d="M82.3383 31.2181V26.0611H83.3735L83.5617 26.8704H83.637C83.7437 26.6131 83.9287 26.3998 84.1922 26.2304C84.4557 26.0548 84.7977 25.9669 85.218 25.9669C86.4163 25.9669 87.0155 26.61 87.0155 27.8961V31.2181H85.6039V28.1785C85.6039 27.8271 85.5317 27.5762 85.3874 27.4256C85.2494 27.2688 85.0455 27.1903 84.7757 27.1903C84.4495 27.1903 84.1954 27.3221 84.0134 27.5856C83.8378 27.8491 83.7499 28.2381 83.7499 28.7525V31.2181H82.3383Z" fill="#808080"/>
<path d="M82.4694 26.0697V25.4769L83.4199 25.0816H85.575V24.4323H86.7795V26.0697H82.4694Z" fill="#808080"/>
<path d="M85.5655 23.9335V22.1831H86.7889V23.9335H85.5655Z" fill="#808080"/>
<path d="M90.1827 31.3122C89.6745 31.3122 89.2698 31.2024 88.9687 30.9829C88.6676 30.757 88.4511 30.4496 88.3194 30.0606C88.1876 29.6654 88.1217 29.2136 88.1217 28.7055C88.1217 28.1596 88.1813 27.7079 88.3005 27.3503C88.426 26.9864 88.6017 26.7041 88.8275 26.5034C89.0534 26.2963 89.32 26.152 89.6275 26.0705C89.9411 25.9826 90.2831 25.9387 90.6532 25.9387C91.2179 25.9387 91.6696 26.0171 92.0084 26.174C92.3472 26.3308 92.5918 26.5535 92.7424 26.8421C92.8993 27.1307 92.9777 27.4695 92.9777 27.8585V31.2181H91.5661V27.9714C91.5661 27.6766 91.4939 27.4538 91.3496 27.3033C91.2116 27.1464 90.9795 27.068 90.6532 27.068C90.4336 27.068 90.2392 27.1151 90.0698 27.2092C89.9066 27.297 89.778 27.457 89.6839 27.6891C89.5961 27.9212 89.5522 28.2538 89.5522 28.6866C89.5522 29.1321 89.618 29.4928 89.7498 29.7689C89.8815 30.0449 90.1105 30.183 90.4368 30.183C90.5748 30.183 90.7003 30.1673 90.8132 30.1359L90.945 31.1899C90.8446 31.2338 90.7222 31.2652 90.5779 31.284C90.4399 31.3028 90.3082 31.3122 90.1827 31.3122Z" fill="#808080"/>
<path d="M88.4522 26.0697V25.4769L89.4027 25.0816H91.5578V24.4323H92.7623V26.0697H88.4522Z" fill="#808080"/>
<path d="M94.3591 31.2181V26.0611H95.3942L95.5825 26.8704H95.6577C95.7644 26.6131 95.9495 26.3998 96.213 26.2304C96.4765 26.0548 96.8184 25.9669 97.2388 25.9669C98.4371 25.9669 99.0362 26.61 99.0362 27.8961V31.2181H97.6246V28.1785C97.6246 27.8271 97.5524 27.5762 97.4081 27.4256C97.2701 27.2688 97.0662 27.1903 96.7964 27.1903C96.4702 27.1903 96.2161 27.3221 96.0342 27.5856C95.8585 27.8491 95.7707 28.2381 95.7707 28.7525V31.2181H94.3591Z" fill="#808080"/>
<path d="M94.4902 26.0697V25.4769L95.4406 25.0816H97.5957V24.4323H98.8003V26.0697H94.4902Z" fill="#808080"/>
<path d="M97.5863 23.9335V22.1831H98.8097V23.9335H97.5863Z" fill="#808080"/>
<path d="M101.742 31.3122C101.203 31.3122 100.786 31.1836 100.491 30.9264C100.202 30.6692 100.058 30.3084 100.058 29.8442C100.058 29.3423 100.237 28.9407 100.594 28.6396C100.958 28.3384 101.529 28.1565 102.307 28.0938L103.286 28.0185V27.8679C103.286 27.5668 103.204 27.3503 103.041 27.2186C102.878 27.0868 102.627 27.0209 102.288 27.0209C101.962 27.0209 101.642 27.0711 101.328 27.1715C101.021 27.2656 100.754 27.3786 100.528 27.5103V26.3434C100.71 26.2555 100.967 26.1677 101.3 26.0799C101.633 25.9858 102.015 25.9387 102.448 25.9387C102.674 25.9387 102.887 25.9575 103.088 25.9952C103.289 26.0265 103.461 26.0893 103.606 26.1834C103.756 26.0579 103.835 25.9042 103.841 25.7223H105.074C105.074 25.9481 105.02 26.1614 104.914 26.3622C104.807 26.563 104.638 26.7324 104.406 26.8704C104.5 26.9959 104.566 27.1464 104.603 27.3221C104.647 27.4978 104.669 27.6985 104.669 27.9244V31.2181H103.286V29.0348L102.467 29.1195C102.09 29.1572 101.827 29.2325 101.676 29.3454C101.532 29.4583 101.46 29.6089 101.46 29.7971C101.46 29.9853 101.52 30.1265 101.639 30.2206C101.764 30.3147 101.924 30.3618 102.119 30.3618C102.194 30.3618 102.269 30.3555 102.345 30.3429C102.42 30.3241 102.489 30.3053 102.552 30.2865L102.674 31.1711C102.555 31.215 102.414 31.2495 102.25 31.2746C102.087 31.2997 101.918 31.3122 101.742 31.3122Z" fill="#808080"/>
<path d="M103.468 33.6743V32.8368C103.468 32.6799 103.399 32.6015 103.261 32.6015C103.23 32.6015 103.198 32.6046 103.167 32.6109C103.136 32.6172 103.104 32.6266 103.073 32.6392L103.007 31.9616C103.095 31.9302 103.217 31.8988 103.374 31.8675C103.525 31.8361 103.678 31.8204 103.835 31.8204C104.143 31.8204 104.359 31.88 104.485 31.9992C104.61 32.1247 104.673 32.2941 104.673 32.5074V33.6743H103.468Z" fill="#808080"/>
<path d="M107.865 31.3122C107.356 31.3122 106.952 31.2024 106.651 30.9829C106.349 30.757 106.133 30.4496 106.001 30.0606C105.869 29.6654 105.804 29.2136 105.804 28.7055C105.804 28.1596 105.863 27.7079 105.982 27.3503C106.108 26.9864 106.284 26.7041 106.509 26.5034C106.735 26.2963 107.002 26.152 107.309 26.0705C107.623 25.9826 107.965 25.9387 108.335 25.9387C108.9 25.9387 109.351 26.0171 109.69 26.174C110.029 26.3308 110.274 26.5535 110.424 26.8421C110.581 27.1307 110.66 27.4695 110.66 27.8585V31.2181H109.248V27.9714C109.248 27.6766 109.176 27.4538 109.032 27.3033C108.893 27.1464 108.661 27.068 108.335 27.068C108.116 27.068 107.921 27.1151 107.752 27.2092C107.589 27.297 107.46 27.457 107.366 27.6891C107.278 27.9212 107.234 28.2538 107.234 28.6866C107.234 29.1321 107.3 29.4928 107.432 29.7689C107.563 30.0449 107.792 30.183 108.119 30.183C108.257 30.183 108.382 30.1673 108.495 30.1359L108.627 31.1899C108.526 31.2338 108.404 31.2652 108.26 31.284C108.122 31.3028 107.99 31.3122 107.865 31.3122Z" fill="#808080"/>
<path d="M113.424 31.3122C113.004 31.3122 112.681 31.215 112.455 31.0205C112.229 30.8197 112.116 30.5155 112.116 30.1077V26.0611H113.528V29.9383C113.528 30.1704 113.638 30.2865 113.857 30.2865C113.951 30.2865 114.058 30.2645 114.177 30.2206L114.309 31.124C114.071 31.2495 113.776 31.3122 113.424 31.3122Z" fill="#808080"/>
<path d="M115.135 31.2181V29.6465C115.135 29.2513 115.214 28.947 115.371 28.7337C115.528 28.5204 115.75 28.3698 116.039 28.282L116.048 28.2443L115.041 27.8773V27.6326C115.041 27.3252 115.132 27.0429 115.314 26.7857C115.496 26.5285 115.763 26.3246 116.114 26.174C116.472 26.0171 116.905 25.9387 117.413 25.9387C118.122 25.9387 118.686 26.105 119.107 26.4375C119.527 26.7637 119.737 27.2594 119.737 27.9244V31.2181H118.326V28.0091C118.326 27.6954 118.241 27.4601 118.072 27.3033C117.908 27.1464 117.676 27.068 117.375 27.068C117.087 27.068 116.87 27.1307 116.726 27.2562C116.582 27.3754 116.503 27.5229 116.491 27.6985L117.328 28.0844L117.225 28.6961C116.999 28.7086 116.829 28.7902 116.716 28.9407C116.603 29.0913 116.547 29.2952 116.547 29.5524V31.2181H115.135Z" fill="#808080"/>
<path d="M115.26 26.0697V25.4769L116.21 25.0816H118.365V24.4323H119.57V26.0697H115.26Z" fill="#808080"/>
<path d="M118.356 23.9335V22.1831H119.579V23.9335H118.356Z" fill="#808080"/>
<path d="M123.238 31.3405C122.674 31.3405 122.222 31.2746 121.883 31.1428C121.544 31.0048 121.297 30.8135 121.14 30.5688C120.989 30.3241 120.914 30.0418 120.914 29.7218C120.914 29.4458 120.955 29.2231 121.036 29.0537C121.124 28.8843 121.234 28.7557 121.366 28.6678C121.504 28.5737 121.642 28.511 121.78 28.4796V28.4231C121.566 28.3541 121.369 28.2349 121.187 28.0655C121.005 27.8899 120.914 27.6326 120.914 27.2939C120.914 27.0617 120.967 26.8453 121.074 26.6445C121.187 26.4438 121.366 26.2838 121.61 26.1646C121.855 26.0391 122.178 25.9764 122.579 25.9764C122.774 25.9764 122.962 25.992 123.144 26.0234C123.326 26.0485 123.467 26.0861 123.568 26.1363L123.351 27.0868C123.301 27.0743 123.232 27.0617 123.144 27.0492C123.063 27.0304 122.978 27.0209 122.89 27.0209C122.696 27.0209 122.551 27.068 122.457 27.1621C122.363 27.2499 122.316 27.366 122.316 27.5103C122.316 27.7424 122.404 27.8961 122.579 27.9714C122.755 28.0404 122.947 28.0749 123.154 28.0749H123.351V28.9501H123.154C122.884 28.9501 122.68 28.9972 122.542 29.0913C122.41 29.1854 122.344 29.3391 122.344 29.5524C122.344 29.6654 122.369 29.7783 122.42 29.8912C122.476 29.9979 122.57 30.0888 122.702 30.1641C122.834 30.2331 123.022 30.2676 123.266 30.2676C123.618 30.2676 123.856 30.1924 123.982 30.0418C124.113 29.8912 124.179 29.7093 124.179 29.496V26.0611H125.591V29.4489C125.591 30.0951 125.4 30.5719 125.017 30.8793C124.64 31.1868 124.048 31.3405 123.238 31.3405Z" fill="#808080"/>
<path d="M128.283 31.3405C127.963 31.3405 127.662 31.3028 127.38 31.2275C127.097 31.1585 126.834 31.0582 126.589 30.9264L126.966 29.9006C127.104 29.9822 127.27 30.0543 127.464 30.1171C127.659 30.1798 127.85 30.2112 128.038 30.2112C128.39 30.2112 128.669 30.0794 128.876 29.8159C129.083 29.5462 129.186 29.1446 129.186 28.6114C129.186 28.1095 129.083 27.7268 128.876 27.4633C128.669 27.1998 128.346 27.068 127.907 27.068C127.7 27.068 127.486 27.0994 127.267 27.1621C127.047 27.2186 126.865 27.2907 126.721 27.3786V26.221C126.915 26.1332 127.135 26.0642 127.38 26.014C127.624 25.9638 127.885 25.9387 128.161 25.9387C129.027 25.9387 129.654 26.1771 130.043 26.6539C130.432 27.1245 130.626 27.7769 130.626 28.6114C130.626 29.5022 130.422 30.1798 130.015 30.6441C129.607 31.1083 129.03 31.3405 128.283 31.3405Z" fill="#808080"/>
<path d="M131.696 31.2181V29.6465C131.696 29.2513 131.774 28.947 131.931 28.7337C132.088 28.5204 132.311 28.3698 132.6 28.282L132.609 28.2443L131.602 27.8773V27.6326C131.602 27.3252 131.693 27.0429 131.875 26.7857C132.057 26.5285 132.323 26.3246 132.675 26.174C133.032 26.0171 133.465 25.9387 133.973 25.9387C134.682 25.9387 135.247 26.105 135.667 26.4375C136.088 26.7637 136.298 27.2594 136.298 27.9244V31.2181H134.886V28.0091C134.886 27.6954 134.802 27.4601 134.632 27.3033C134.469 27.1464 134.237 27.068 133.936 27.068C133.647 27.068 133.431 27.1307 133.286 27.2562C133.142 27.3754 133.064 27.5229 133.051 27.6985L133.889 28.0844L133.785 28.6961C133.559 28.7086 133.39 28.7902 133.277 28.9407C133.164 29.0913 133.108 29.2952 133.108 29.5524V31.2181H131.696Z" fill="#808080"/>
<path d="M134.775 25.3458C134.48 25.3458 134.248 25.3019 134.079 25.2141C133.909 25.1263 133.79 25.0165 133.721 24.8847C133.646 24.7467 133.608 24.6024 133.608 24.4518C133.608 24.2134 133.671 23.9844 133.796 23.7648L134.822 23.8966C134.791 23.9907 134.775 24.0785 134.775 24.1601C134.775 24.2479 134.803 24.3169 134.86 24.3671C134.91 24.411 134.998 24.433 135.123 24.433H137.147V25.3458H134.775Z" fill="#808080"/>
<path d="M139.94 31.3405C139.124 31.3405 138.532 31.1523 138.161 30.7758C137.798 30.3931 137.616 29.841 137.616 29.1195V26.0611H139.027V29.1948C139.027 29.5273 139.099 29.7814 139.244 29.9571C139.394 30.1265 139.626 30.2112 139.94 30.2112C140.254 30.2112 140.483 30.1265 140.627 29.9571C140.778 29.7814 140.853 29.5273 140.853 29.1948V26.0611H142.265V29.1195C142.265 29.841 142.079 30.3931 141.709 30.7758C141.345 31.1523 140.756 31.3405 139.94 31.3405Z" fill="#808080"/>
<path d="M145.613 31.3405C145.224 31.3405 144.851 31.306 144.493 31.237C144.142 31.1679 143.828 31.0832 143.552 30.9829V28.9501H144.756V30.23C144.851 30.2614 144.967 30.2896 145.105 30.3147C145.249 30.3398 145.396 30.3523 145.547 30.3523C145.804 30.3523 146.021 30.3053 146.196 30.2112C146.378 30.1108 146.469 29.9257 146.469 29.656C146.469 29.4552 146.41 29.3046 146.29 29.2042C146.177 29.1039 146.011 29.0254 145.792 28.969C145.578 28.9062 145.315 28.8341 145.001 28.7525C144.662 28.6584 144.371 28.5612 144.126 28.4608C143.887 28.3541 143.702 28.2161 143.571 28.0467C143.445 27.8773 143.382 27.6515 143.382 27.3691C143.382 26.8484 143.583 26.4814 143.985 26.2681C144.386 26.0485 144.926 25.9387 145.603 25.9387C146.03 25.9387 146.397 25.9732 146.704 26.0422C147.018 26.105 147.257 26.1708 147.42 26.2399V27.3221C147.3 27.2719 147.137 27.2217 146.93 27.1715C146.73 27.1151 146.507 27.068 146.262 27.0304C146.017 26.9927 145.773 26.9739 145.528 26.9739C145.321 26.9739 145.145 26.9959 145.001 27.0398C144.863 27.0837 144.794 27.1652 144.794 27.2844C144.794 27.3848 144.851 27.4633 144.963 27.5197C145.076 27.5699 145.233 27.6201 145.434 27.6703C145.635 27.7142 145.867 27.7769 146.13 27.8585C146.488 27.9652 146.792 28.0875 147.043 28.2255C147.294 28.3635 147.486 28.5455 147.617 28.7713C147.749 28.9909 147.815 29.2764 147.815 29.6277C147.815 29.954 147.746 30.2457 147.608 30.5029C147.476 30.7601 147.25 30.964 146.93 31.1146C146.61 31.2652 146.171 31.3405 145.613 31.3405Z" fill="#808080"/>
<path d="M146.083 33.6743V32.8368C146.083 32.6799 146.014 32.6015 145.876 32.6015C145.845 32.6015 145.813 32.6046 145.782 32.6109C145.751 32.6172 145.719 32.6266 145.688 32.6392L145.622 31.9616C145.71 31.9302 145.832 31.8988 145.989 31.8675C146.139 31.8361 146.293 31.8204 146.45 31.8204C146.757 31.8204 146.974 31.88 147.099 31.9992C147.225 32.1247 147.288 32.2941 147.288 32.5074V33.6743H146.083Z" fill="#808080"/>
<path d="M150.606 31.3405C150.236 31.3405 149.863 31.2997 149.486 31.2181C149.116 31.1366 148.787 31.0205 148.498 30.8699L148.893 29.7501C149.082 29.8504 149.323 29.9571 149.618 30.07C149.913 30.1767 150.223 30.23 150.55 30.23C151.058 30.23 151.312 30.0826 151.312 29.7877C151.312 29.6246 151.215 29.4991 151.02 29.4113C150.832 29.3172 150.568 29.2105 150.23 29.0913C149.897 28.9721 149.612 28.8435 149.373 28.7055C149.135 28.5674 148.95 28.3981 148.818 28.1973C148.693 27.9965 148.63 27.7456 148.63 27.4444C148.63 26.93 148.821 26.5504 149.204 26.3057C149.593 26.0611 150.11 25.9387 150.757 25.9387C151.108 25.9387 151.425 25.9669 151.707 26.0234C151.989 26.0799 152.209 26.152 152.366 26.2399V27.3503C152.203 27.275 151.974 27.2029 151.679 27.1339C151.384 27.0586 151.099 27.0209 150.823 27.0209C150.302 27.0209 150.041 27.1527 150.041 27.4162C150.041 27.5668 150.142 27.686 150.343 27.7738C150.55 27.8554 150.838 27.9589 151.208 28.0844C151.698 28.2538 152.071 28.4577 152.328 28.6961C152.592 28.9282 152.723 29.267 152.723 29.7124C152.723 29.9947 152.658 30.2614 152.526 30.5123C152.4 30.757 152.184 30.9578 151.876 31.1146C151.569 31.2652 151.146 31.3405 150.606 31.3405Z" fill="#808080"/>
<path d="M153.661 31.2181V29.6465C153.661 29.2513 153.739 28.947 153.896 28.7337C154.053 28.5204 154.275 28.3698 154.564 28.282L154.573 28.2443L153.566 27.8773V27.6326C153.566 27.3252 153.657 27.0429 153.839 26.7857C154.021 26.5285 154.288 26.3246 154.639 26.174C154.997 26.0171 155.43 25.9387 155.938 25.9387C156.647 25.9387 157.212 26.105 157.632 26.4375C158.052 26.7637 158.262 27.2594 158.262 27.9244V31.2181H156.851V28.0091C156.851 27.6954 156.766 27.4601 156.597 27.3033C156.434 27.1464 156.201 27.068 155.9 27.068C155.612 27.068 155.395 27.1307 155.251 27.2562C155.107 27.3754 155.028 27.5229 155.016 27.6985L155.853 28.0844L155.75 28.6961C155.524 28.7086 155.355 28.7902 155.242 28.9407C155.129 29.0913 155.072 29.2952 155.072 29.5524V31.2181H153.661Z" fill="#808080"/>
<path d="M153.803 25.3458V24.753L154.754 24.3577H158.114V25.3458H153.803Z" fill="#808080"/>
<path d="M160.004 31.2181V29.0537H159.467V28.1879H161.274V30.1453H161.34C161.654 30.1453 161.895 30.0198 162.065 29.7689C162.234 29.5179 162.319 29.1384 162.319 28.6302C162.319 28.0467 162.196 27.6389 161.952 27.4068C161.707 27.1747 161.349 27.0586 160.879 27.0586C160.553 27.0586 160.258 27.1056 159.994 27.1998C159.731 27.2876 159.495 27.3942 159.288 27.5197V26.3434C159.495 26.2367 159.756 26.1426 160.07 26.0611C160.383 25.9795 160.744 25.9387 161.152 25.9387C162.061 25.9387 162.72 26.1583 163.128 26.5975C163.542 27.0366 163.749 27.7048 163.749 28.6019C163.749 29.4426 163.555 30.0888 163.166 30.5406C162.783 30.9923 162.127 31.2181 161.199 31.2181H160.004Z" fill="#808080"/>
<path d="M4.97683 9.95366H29.861V7.46524H4.97683V9.95366ZM18.6631 24.8841H27.3726V22.3957H18.6631V24.8841ZM18.6631 19.9073H29.861V17.4189H18.6631V19.9073ZM18.6631 14.9305H29.861V12.4421H18.6631V14.9305ZM4.97683 24.8841H16.1747V12.4421H4.97683V24.8841ZM34.8378 4.97683V0H0V27.3726C0 27.3726 0 32.3494 4.97683 32.3494H36.082C36.082 32.3494 39.8146 32.2723 39.8146 27.3726V4.97683H34.8378ZM4.97683 29.861C2.48841 29.861 2.48841 27.3726 2.48841 27.3726V2.48841H32.3494V27.3726C32.3494 28.5185 32.7028 29.311 33.1905 29.861H4.97683Z" fill="white"/>
</svg>
